<svg xmlns="http://www.w3.org/2000/svg" xmlns:xlink="http://www.w3.org/1999/xlink" width="600" height="400" viewBox="0 0 600 400">
  <defs>
    <clipPath id="clip-_404">
      <rect width="600" height="400"/>
    </clipPath>
  </defs>
  <g id="_404" data-name="404" clip-path="url(#clip-_404)">
    <g id="Group_9201" data-name="Group 9201" transform="translate(4.755 13.369)">
      <g id="Group_9202" data-name="Group 9202" transform="translate(0 0)">
        <path id="Path_14511" data-name="Path 14511" d="M671.585,382.06c-4.357-.306-8.617,1.041-12.99.692-10.169-.813-20.369-1.294-30.43-3.167a36.227,36.227,0,0,0-4-.309c7.418-27.615,15.325-55.09,23.594-82.869,12.536,10.509,26.77,16.046,43.495,15.865-.923,3.068-1.84,6.086-2.741,9.108-5.809,19.488-11.084,39.123-16.243,58.79-.169.646-.455,1.26-.687,1.889" transform="translate(-203.175 -96.485)" fill="#fdfdfd"/>
        <path id="Path_14512" data-name="Path 14512" d="M276.159,401.152c-6.612-.882-12.532-3.936-18.733-6.076-9.918-3.422-19.724-7.174-29.569-10.809-1.291-.477-8.094-10.815-7.941-16.53-4.7-18.86-8.942-37.835-14.554-56.907,8.392.764,16.409,1.063,24.334-1.007a44.482,44.482,0,0,0,20.915-12.328c2.919,11.2,5.844,21.963,8.52,32.789,4.4,17.808,8.645,35.656,12.942,53.491.1.427,4.06,16.932,4.085,17.378" transform="translate(-66.848 -96.839)" fill="#fdfdfd"/>
        <path id="Path_14513" data-name="Path 14513" d="M67.506,385.409s45.922-16.664,119.153,17.616c0,0,88.225,33.01,143.672,6.983s123.8-4.444,129.723-3.492,70.789,7.3,123.1-12.379V495.975H67.506Z" transform="translate(-21.974 -124.138)" fill="#f3f2f2"/>
        <path id="Path_14514" data-name="Path 14514" d="M395.854,169.392c2.139.337,3.062-.161,4-2.194,4.311-9.4,9.388-18.35,17.042-25.531a37.709,37.709,0,0,1,5.241-4.181c7.179-4.649,11.76-2.805,13.6,5.392,1.092.237,1.513-.741,2.139-1.262A98.662,98.662,0,0,1,460.942,127.4a29.618,29.618,0,0,1,6.06-1.922c9.042-1.854,15.411,5.227,12.827,14.121a18.76,18.76,0,0,1-5.246,8.055c-.672.666-1.661,1.092-.58,2.381,4.11,4.9,1.384,9.174-2.734,11.713-1.6.986-6.114,3.488-8.086,4.544,3.189.825-29.584-29.305-55.482,8.72-1.25,1.835-11.847-5.623-11.847-5.623" transform="translate(-128.856 -40.749)" fill="#2a180b"/>
        <path id="Path_14515" data-name="Path 14515" d="M410.517,280.634l-1.111-39.2s-11.426-10.593-11.9-23.448c0,0-24.572-1.061-24.321-15.376.318-18.091,18.152-20.511,26.385-13.548,0,0,18.762-30.668,48.333-15.272a22.6,22.6,0,0,1,10.9,12.781c3.242,9.5,8.286,26.361,8.854,40.738,0,0,2.222,21.107-21.742,24.441v27.3" transform="translate(-121.475 -55.164)" fill="none" stroke="#2a180b" stroke-linecap="round" stroke-miterlimit="10" stroke-width="3"/>
        <path id="Path_14516" data-name="Path 14516" d="M101.867,552.086l.673.673q-.869.2-.673-.673" transform="translate(-33.147 -179.712)" fill="#fefefd"/>
        <path id="Path_14517" data-name="Path 14517" d="M368.808,279.631c-.078,2.645.863,2.609,2.931,1.772,7.872-3.186,15.646-6.638,23.96-8.629,17.85-4.276,30.61.754,39.924,16.613,7.988,13.6,14.062,28.162,19.93,42.784,2.067,5.151,3.932,10.384,6.239,16.506,1.452-5.142,2.668-9.437,3.879-13.733,8.184-29.054,16.217-58.15,25.6-86.854,2.35-7.191,6.141-13.062,12.3-17.482,10.969-7.879,22.461-14.682,35.755-17.891a12.308,12.308,0,0,1,3.324-.347c1.845.072,3.578.583,4.5,2.406.943,1.871.2,3.561-.969,4.968-1.538,1.854-3.294,3.527-5.184,5.518,4.251-.593,8.225-1.078,12.176-1.712,7.725-1.239,14.3,1.121,20.063,6.19.252.221.624.408.723.688a86.369,86.369,0,0,0,4.726,9.846c.713,1.416.771,3.073,2.073,4.471,2.628,2.82,1.047,7.355-3.105,9.259-4.824,2.212-10.088,2.894-15.2,4.072a106.843,106.843,0,0,0-12.909,3.6,16.582,16.582,0,0,0-10.456,10.54c-3.927,10.834-7.313,21.83-10.384,32.924-4.412,15.944-8.682,31.927-13.013,47.894q-6.8,25.079-13.613,50.156c-2.439,8.955-5.759,17.477-13.006,23.769-9.35,8.119-22,9.12-33.529,2.879a49.026,49.026,0,0,1-18.587-18.021c-7.763-12.682-15.37-25.456-22.506-38.506a2.132,2.132,0,0,0-1.46-1.13q.6,13.132,1.2,26.265c.558,11.748,1.139,25.732,1.7,37.479.038.783.051,1.57.011,2.352a1.485,1.485,0,0,1-1.412,1.574c-.956.067-1.429-.6-1.5-1.464-.181-2.232-.32-6.706-.43-8.943q-2.117-43.3-4.22-86.593c-.253-6.223-.521-12.445-.746-18.669-.045-1.253-.564-2.987,1.507-3.035,1.891-.042,1.415,1.633,1.489,2.753.419,6.319.8,12.641,1.191,18.962.217,5.81.444,11.619.646,17.429a11.038,11.038,0,0,0,1.211,5.1c8.3,15.467,17.241,30.555,26.425,45.506a55.721,55.721,0,0,0,7.561,9.391c1.345,1.4,2.147,1.689,3.627-.018a54.543,54.543,0,0,1,13.241-11.284c10.316-6.141,21.028-10.62,33.372-6.871,1.79.544,1.549-.812,1.747-1.554q6.262-23.461,12.432-46.947c.231-.629.517-1.244.687-1.889,5.159-19.667,10.434-39.3,16.243-58.79.9-3.022,1.818-6.041,2.741-9.108-16.725.181-30.959-5.356-43.495-15.865-8.269,27.779-16.176,55.255-23.594,82.869q-3.5,12.574-7,25.148c-.419,1.505-.851,3.008-1.273,4.512-.239.848-.759,1.431-1.672,1.305-1.143-.157-1.36-1.039-1.211-2.009a20.686,20.686,0,0,1,.544-2.276c1.846-6.784,3.669-13.575,5.563-20.345.878-3.136-2.34-11.579-2.9-13.151a389.834,389.834,0,0,0-15.1-36.119c-3.792-7.96-7.158-16.18-12.918-23.036-7.051-8.393-15.943-11.852-26.874-10.179-9.835,1.506-18.759,5.643-27.909,9.181-3.065,1.185-5.918,2.151-4.783,6.408.248.927,0,2.178-1.379,2.247-1.609.082-1.647-1.187-1.667-2.338-.043-2.464-.173-4.933-.06-7.39.107-2.332-.482-3.216-3.008-2.478a30.8,30.8,0,0,1-7.255,1.252c-2.161.093-2.548.957-2.494,2.875.22,7.723.28,15.45.442,23.175q.485,23,1.015,46c.049,4.489.1,15.191.146,19.68-.756,1.27-1.252,1.99-3.152,1.845-.123-4.688-.332-14.819-.456-19.507-.146-10.407-.269-20.813-.446-31.219-.227-13.322-.5-26.642-.743-39.963-.022-1.227.234-2.531-1.675-2.566a37.33,37.33,0,0,1-14.518-3.3c0,1.35-.024,2.322,0,3.294.089,3.021.2,6.042.3,9.063.041,1.2-.155,2.477-1.545,2.55-1.5.079-1.589-1.24-1.58-2.416.007-.9-.078-1.8-.015-2.686a2.4,2.4,0,0,0-1.792-2.746c-13.15-5.1-26.422-9.725-40.568-11.217-17.775-1.874-28.639,5.348-33.766,22.49-2.842,9.5-2.827,19.458-4.615,29.112-2.057,11.106-.789,21.761,2.761,32.3.358,1.859.667,3.729,1.083,5.575,1.18,5.236,2.426,10.457,3.589,15.7.21.946.47,2.127-.948,2.468-1.317.316-1.778-.572-2.019-1.656-.121-.546-.254-1.089-.384-1.634q-2.7-11.235-5.4-22.471a7.532,7.532,0,0,0-.086-1.334c-4.3-17.835-8.54-35.682-12.941-53.491-2.676-10.826-5.6-21.59-8.52-32.789a44.481,44.481,0,0,1-20.916,12.329c-7.925,2.07-15.942,1.771-24.334,1.007C187.755,301.1,192,320.076,196.7,338.936q6.317,27.441,12.61,54.888c.358,1.572.956,2.235,2.695,2.114a26.5,26.5,0,0,1,9.28,1.183c17.5,5.123,29.967,16.38,38.832,31.979.706,1.242.793,2.789,2.909,1.375a40.252,40.252,0,0,0,17.738-28.862c1.657-12.237.838-24.81,1.1-37.236q.426-13.4.855-26.8c.136-4.132.3-8.263.453-12.394.036-.987.341-1.812,1.5-1.812s1.492.812,1.5,1.808c.007.782-.04,1.564-.057,2.346q-.389,18.765-.776,37.53c-.946,15.772-1.028,31.572-1.495,47.359-.216,7.281-.37,16.8-.629,24.082-.047,1.312.452,3.455-1.723,3.291-2.024-.152-1.45-2.206-1.42-3.565.117-5.378.324-12.992.486-18.369a13.857,13.857,0,0,0-.236-3.3c-2.288,3.965-4.443,7.949-7.452,11.367-18.83,21.4-51.848,14.556-61.534-12.929-3.98-11.295-5.995-23.157-8.792-34.789-3.37-14.012-6.662-28.042-9.987-42.065-3.175-15.337-7.141-30.482-11.22-45.6-1.514-5.606-3.51-11.082-5.006-16.693-1.694-6.348-5.891-10-11.827-12.175-6.53-2.391-13.334-3.761-20.019-5.573a26.687,26.687,0,0,1-7.159-2.806c-3.888-2.4-4.434-6.7-1.122-9.8.9-.84.663-1.778,1.055-2.568,1.974-3.983,3.4-8.482,6.584-11.56,7.038-6.8,15.776-6.45,24.584-4.574,3.931.837,7.79,2.006,11.7,2.956.643.156,1.5.977,2.032-.072.356-.7-.332-1.224-.753-1.712-1.754-2.036-3.549-4.036-5.295-6.078a13.472,13.472,0,0,1-2.555-4.309,4.9,4.9,0,0,1,1.072-5.286c1.42-1.544,3.08-1.468,4.935-.869a38.42,38.42,0,0,1,8.952,4.533c8.387,5.407,16.042,11.811,23.956,17.852,6.1,4.657,10.026,10.981,12.406,18.357,7.938,24.6,13.8,49.748,20.041,74.8a11.2,11.2,0,0,0,1.808,4.379c.518-4.106,1.061-8.208,1.547-12.317.894-7.557,1.686-15.119,4.011-22.431,5.367-16.874,17.528-24.926,35.22-23.43,13.874,1.173,26.9,5.465,39.772,10.4,3.426,1.313,3.437,1.32,3.306-2.3V272.52s9.807,7.558,20.877,6.486,17.021-2.975,17.377-4.047-.026,4.671-.026,4.671M565.6,228.273a13.607,13.607,0,0,0-7.413-1.8c-8.157-.057-15.938,2.021-23.747,4.069-2.678.7-3.083,1.881-2.607,4.45,1.158,6.24-.911,11.69-4.985,16.415-.747.865-1.661,2.309-3.018,1.158-1.559-1.323-.1-2.293.766-3.29,4.109-4.746,5.774-10.285,3.6-16.184-1.052-2.859-.282-3.6,1.914-4.8a48.953,48.953,0,0,0,13.131-9.788c.591-.653,1.379-1.417.976-2.332-.43-.979-1.572-.622-2.394-.629a17.537,17.537,0,0,0-5.89,1.2,111.666,111.666,0,0,0-31.4,17.026,26.328,26.328,0,0,0-9.723,13.7,116.4,116.4,0,0,1-4.178,12.369c-1.484,3.512-.5,5.709,2.309,7.936a60.043,60.043,0,0,0,30.26,12.581c9.182,1.178,9.564,1.184,12.318-7.5,2.691-8.49,8.333-13.237,16.584-15.359,6.6-1.7,13.259-3.178,19.884-4.786a14.362,14.362,0,0,0,5.554-2.26,2.824,2.824,0,0,0,1.118-3.282c-.44-1.23-1.568-1.446-2.785-1.294-1,.125-2.017.136-3.01.3-6.733,1.1-13.55,1.74-20.135,3.646-1.086.315-2.072.378-2.427-.925-.292-1.073.443-1.689,1.357-1.987a34.279,34.279,0,0,1,3.555-.953c5.919-1.245,11.894-2.134,17.893-2.9,1.062-.134,2.805.2,2.789-1.657-.015-1.668-1.31-2.519-2.747-3.006a3.954,3.954,0,0,0-1.644.032,195.107,195.107,0,0,0-21.819,3.732c-1.265.3-2.817,1.323-3.254-.722-.4-1.864,1.4-1.92,2.661-2.261,6.935-1.874,14.07-2.643,21.129-3.833.778-.132,1.957.222,2.007-1.184a2.472,2.472,0,0,0-1.266-2.228,4.394,4.394,0,0,0-3.193-.686c-6.739,1.083-13.5,2.034-20.17,3.524-1.624.363-4.2,2.651-4.922.1-.844-2.976,2.716-2.51,4.476-3.053,5.858-1.808,12.007-2.288,18.439-3.536m-414.386-.228a5.9,5.9,0,0,0,3.253,1.116c5.935,1.124,11.892,2.173,17.611,4.185.983.347,2.367.775,1.8,2.3-.535,1.45-1.727,1.035-2.834.66-1.27-.43-2.55-.836-3.841-1.2-6.043-1.682-12.241-2.621-18.391-3.789-2.106-.4-4.161.167-4.551,2.326-.467,2.579,2.246,1.756,3.406,1.977,6.593,1.258,13.206,2.4,19.665,4.267,1.254.362,2.964.663,2.349,2.521-.573,1.729-1.989.8-3.117.48-7.119-2.015-14.405-3.215-21.673-4.521-2.26-.406-4,.3-4.391,2.442-.494,2.734,2.151,2.072,3.511,2.323,6.6,1.219,13.244,2.195,19.686,4.154,1.11.337,2.344.778,1.927,2.214s-1.507,1.115-2.733.76a179.887,179.887,0,0,0-22.019-4.437c-1.391-.221-2.866-.58-3.485.979a2.977,2.977,0,0,0,1.686,3.923,29.586,29.586,0,0,0,4.972,1.955c6.556,1.858,13.165,3.534,19.708,5.434,8.079,2.347,13.95,7.126,15.709,15.711.808,3.943,2.859,5.236,6.764,5.525,12.574.929,24.362-.758,34.545-8.872,5.84-4.655,5.819-4.683,3.687-11.615-.362-1.174-.78-2.332-1.113-3.515-2.028-7.2-4.672-14.227-10.583-19.083-9.666-7.941-19.262-16.044-30.257-22.177-1.7-.948-3.988-3.267-5.638-1.3-1.782,2.129.961,4.01,2.224,5.665,2.849,3.732,6.373,6.932,8.851,10.964.663,1.079,1.7,2.1.89,3.656-3.369,6.513-1.525,12.294,2.626,17.709.745.971,1.9,2.037.561,3.13-1.311,1.07-2.212-.183-3.014-1.135a19.68,19.68,0,0,1-4.267-17.9c.4-1.737.028-2.37-1.547-2.878a115.148,115.148,0,0,0-15.2-4.121c-5.5-.972-11.046-1.943-16.781.157m95.672,207.469a39.1,39.1,0,0,0,9.182-1.69c2.077-.631,2.237-1.51,1.286-3.331-5.328-10.2-13.267-17.924-22.788-24.124a44.646,44.646,0,0,0-21.287-7.461c-2.127-.158-2.811.25-2.086,2.487,1.031,3.184,1.614,6.516,2.678,9.688,4.943,14.742,17.821,24.429,33.015,24.429m205.135-11.566c6.707,4.759,13.714,7.616,21.82,6.619,10.509-1.292,16.866-7.989,21.312-16.93,4.085-8.215,2.492-10.595-6.774-9.877-15.1,1.17-26.457,9.152-36.358,20.187M182.677,227.778c-.08.086-.221.179-.208.237a2.022,2.022,0,0,0,.208.444c.075-.073.223-.161.211-.215a2.18,2.18,0,0,0-.21-.466" transform="translate(-43.629 -68.038)" fill="#2a180b"/>
        <path id="Path_14518" data-name="Path 14518" d="M253.629,75.362c-13.552,0-27.106-.076-40.657.061-2.845.029-3.957-.569-3.839-3.671.246-6.485.213-12.991.008-19.478-.086-2.715,1.18-3.573,3.453-3.792.777-.076,1.567-.03,2.351-.03q39.314,0,78.627,0c4.462,0,4.467.009,4.47,4.483,0,6.271-.173,12.548.075,18.809.122,3.092-.975,3.709-3.832,3.68-13.55-.14-27.1-.063-40.657-.063m-10.793-14.8c-4.8,0-9.607-.061-14.408.038-1.425.029-3.886-.815-3.973,1.157-.093,2.133,2.361,2.117,4.141,2.167.335.009.67,0,1,0q13.237,0,26.472,0a13.7,13.7,0,0,0,2.672-.094c1.085-.22,2.307-.554,2.169-2.05s-1.382-1.2-2.329-1.2c-5.25-.024-10.5-.011-15.749-.014" transform="translate(-68.073 -15.767)" fill="#f3f3f3"/>
        <path id="Path_14519" data-name="Path 14519" d="M164.155,43.1a15.452,15.452,0,0,1,15.12,15.632,15.851,15.851,0,0,1-31.7-.4c.282-8.94,7.377-15.461,16.58-15.237" transform="translate(-48.035 -14.027)" fill="#f07371"/>
        <path id="Path_14520" data-name="Path 14520" d="M238.274,104.776c-9.3,0-18.593.013-27.889-.016-1.247,0-3.064.5-3.1-1.533s1.785-1.63,3.037-1.632q28.226-.038,56.451,0c1.26,0,3.057-.42,3.092,1.58.036,2.067-1.789,1.583-3.032,1.587-9.52.031-19.041.017-28.562.017" transform="translate(-67.475 -33.058)" fill="#2a180b"/>
        <path id="Path_14521" data-name="Path 14521" d="M341.009,278.336c-5.169-.013-8.6-3.481-8.659-8.552-.059-5.171,3.511-8.348,8.609-8.843,4.173-.405,8.946,4.463,8.857,8.9-.08,4.014-3.537,9.323-8.807,8.5m5.493-8.422c.009-3.35-2.075-5.623-5.229-5.7-3.3-.086-5.525,2.171-5.542,5.619-.016,3.372,2.066,5.781,5.016,5.8a5.847,5.847,0,0,0,5.754-5.719" transform="translate(-108.184 -84.932)" fill="#f3f3f3"/>
        <path id="Path_14522" data-name="Path 14522" d="M117.872,405.479l45.023.022a2.515,2.515,0,0,1-1.035,2c-6.563,6.561-13.153,13.1-19.665,19.71-1.524,1.548-2.556,1.127-3.882-.221-6.274-6.375-12.614-12.687-18.922-19.029-.7-.7-1.56-1.325-1.519-2.487" transform="translate(-38.369 -131.989)" fill="#a93cf7"/>
        <path id="Path_14523" data-name="Path 14523" d="M162.457,471.246l-43.765,0a1.624,1.624,0,0,1,.381-2.268q9.856-9.569,19.49-19.363c1.5-1.524,2.367-1.673,3.946-.042,6.06,6.258,12.274,12.367,18.449,18.512.9.893,1.733,1.762,1.5,3.165" transform="translate(-38.539 -145.963)" fill="#a93cf7"/>
        <path id="Path_14524" data-name="Path 14524" d="M178.7,453.678q-.026.676-.052,1.352c-1.586.349-2.457-.731-3.408-1.683-6.078-6.1-12.1-12.249-18.29-18.231-1.641-1.586-1.492-2.434.034-3.931q9.814-9.63,19.391-19.5a1.645,1.645,0,0,1,2.277-.4q.013,1.688.027,3.374,0,.67,0,1.341.01,17.832.022,35.663,0,1.009,0,2.016" transform="translate(-50.71 -133.785)" fill="#a93cf7"/>
        <path id="Path_14525" data-name="Path 14525" d="M112.847,454.883q.015-22.207.031-44.414a2.519,2.519,0,0,1,2.035.99c6.559,6.587,13.086,13.207,19.7,19.738,1.6,1.58.99,2.6-.3,3.878-6.128,6.068-12.208,12.184-18.3,18.285-.878.88-1.727,1.807-3.162,1.524" transform="translate(-36.733 -133.611)" fill="#a93cf7"/>
        <path id="Path_14526" data-name="Path 14526" d="M456.7,454.15c.628-1.4,1.327-2.709,3.235-2.353.354,20.274.708,42.786,1.062,63.06.008.449.014.9.028,1.345.036,1.145.09,2.5-1.38,2.612-1.745.136-1.772-1.338-1.791-2.6-.115-7.621-.181-17.481-.332-25.1-.246-12.322-.544-24.644-.821-36.965" transform="translate(-148.664 -147.047)" fill="#2a180b"/>
        <path id="Path_14527" data-name="Path 14527" d="M514.376,519.467c-1.223-.416-1.475-1.344-.8-2.544,1.851-3.306,3.736-6.592,5.614-9.883a1.689,1.689,0,0,1,2.254-.878c1.136.456,1.019,1.314.519,2.2q-2.876,5.092-5.772,10.173a1.687,1.687,0,0,1-1.812.932" transform="translate(-167.057 -164.713)" fill="#f07371"/>
        <path id="Path_14528" data-name="Path 14528" d="M216.242,461.081a2.78,2.78,0,0,1-.709.772,1.592,1.592,0,0,1-2.116-.372c-1.524-1.906-3-3.853-4.448-5.816a1.415,1.415,0,0,1,1.493-2.287c.884.156,5.894,6.6,5.78,7.7" transform="translate(-67.91 -147.567)" fill="#f07371"/>
        <path id="Path_14529" data-name="Path 14529" d="M777.927,423.944c1.918,1.082,3.977,2.017,5.5,3.711a1.334,1.334,0,0,1-.094,1.839,1.14,1.14,0,0,1-1.5.362c-1.712-1.042-3.432-2.079-5.067-3.234a1.58,1.58,0,0,1,1.154-2.678" transform="translate(-252.702 -138)" fill="#f07371"/>
        <path id="Path_14530" data-name="Path 14530" d="M737.364,231.395c-6.433,1.249-12.582,1.729-18.439,3.537-1.76.543-5.32.077-4.476,3.053.723,2.55,3.3.261,4.922-.1,6.673-1.491,13.431-2.442,20.17-3.524a4.391,4.391,0,0,1,3.193.685A2.47,2.47,0,0,1,744,237.273c-.049,1.406-1.229,1.053-2.007,1.184-7.059,1.19-14.193,1.96-21.128,3.834-1.263.341-3.059.4-2.662,2.26.437,2.046,1.988,1.023,3.254.722a195.1,195.1,0,0,1,21.818-3.731,3.945,3.945,0,0,1,1.644-.032c1.437.488,2.732,1.339,2.746,3.006.017,1.858-1.726,1.523-2.788,1.658-6,.761-11.975,1.65-17.893,2.895a34.189,34.189,0,0,0-3.555.953c-.914.3-1.649.915-1.357,1.988.355,1.3,1.34,1.24,2.427.925,6.585-1.907,13.4-2.546,20.135-3.646.993-.162,2.009-.172,3.009-.3,1.217-.153,2.345.063,2.786,1.293a2.826,2.826,0,0,1-1.118,3.282,14.355,14.355,0,0,1-5.554,2.26c-6.625,1.609-13.282,3.088-19.884,4.786-8.25,2.122-13.892,6.869-16.584,15.359-2.755,8.687-3.136,8.683-12.318,7.5a60.034,60.034,0,0,1-30.26-12.58c-2.809-2.227-3.793-4.424-2.309-7.936a116.376,116.376,0,0,0,4.179-12.369,26.324,26.324,0,0,1,9.722-13.7,111.664,111.664,0,0,1,31.4-17.027,17.539,17.539,0,0,1,5.89-1.2c.823.007,1.965-.349,2.4.629.4.915-.385,1.679-.977,2.332a48.92,48.92,0,0,1-13.13,9.788c-2.2,1.2-2.966,1.943-1.914,4.8,2.17,5.9.505,11.438-3.6,16.184-.863,1-2.324,1.967-.765,3.29,1.356,1.151,2.271-.292,3.018-1.158,4.074-4.725,6.143-10.174,4.985-16.414-.476-2.569-.072-3.748,2.607-4.451,7.808-2.048,15.59-4.127,23.747-4.069a13.609,13.609,0,0,1,7.413,1.8" transform="translate(-215.397 -71.16)" fill="#fbfbfb"/>
        <path id="Path_14531" data-name="Path 14531" d="M152.717,229.5c5.735-2.1,11.284-1.128,16.781-.157a115.017,115.017,0,0,1,15.2,4.12c1.574.508,1.945,1.141,1.547,2.879a19.68,19.68,0,0,0,4.268,17.9c.8.952,1.7,2.2,3.013,1.134,1.34-1.093.185-2.158-.56-3.13-4.151-5.414-6-11.2-2.626-17.708.807-1.559-.226-2.577-.89-3.657-2.478-4.031-6-7.232-8.851-10.964-1.263-1.655-4.006-3.536-2.224-5.664,1.65-1.972,3.938.346,5.638,1.294,10.994,6.134,20.591,14.237,30.257,22.178,5.911,4.856,8.555,11.883,10.583,19.083.333,1.183.752,2.34,1.114,3.515,2.132,6.932,2.152,6.961-3.688,11.615-10.183,8.115-21.971,9.8-34.544,8.872-3.9-.288-5.956-1.581-6.764-5.525-1.76-8.584-7.63-13.364-15.709-15.71-6.544-1.9-13.152-3.576-19.708-5.434a29.536,29.536,0,0,1-4.973-1.955,2.977,2.977,0,0,1-1.685-3.922c.619-1.559,2.094-1.2,3.484-.98a180.029,180.029,0,0,1,22.019,4.438c1.226.355,2.318.666,2.732-.761s-.817-1.876-1.927-2.214c-6.442-1.959-13.087-2.934-19.686-4.153-1.36-.252-4,.411-3.51-2.323.387-2.139,2.131-2.849,4.391-2.443,7.268,1.306,14.553,2.507,21.672,4.522,1.128.319,2.545,1.248,3.118-.48.615-1.858-1.1-2.159-2.349-2.522-6.459-1.868-13.072-3.008-19.665-4.267-1.16-.221-3.873.6-3.406-1.977.391-2.158,2.444-2.726,4.551-2.326,6.149,1.168,12.347,2.107,18.39,3.789,1.292.359,2.572.766,3.842,1.2,1.106.375,2.3.79,2.834-.66.562-1.522-.822-1.951-1.806-2.3-5.719-2.012-11.675-3.062-17.611-4.185a5.908,5.908,0,0,1-3.253-1.116" transform="translate(-45.136 -69.489)" fill="#fbfbfb"/>
        <path id="Path_14532" data-name="Path 14532" d="M283.985,527.144c-15.194,0-28.071-9.687-33.015-24.429-1.064-3.172-1.646-6.5-2.678-9.688-.724-2.237-.04-2.645,2.087-2.486A44.637,44.637,0,0,1,271.666,498c9.52,6.2,17.459,13.924,22.788,24.124.951,1.82.79,2.7-1.286,3.33a39.061,39.061,0,0,1-9.182,1.69" transform="translate(-80.732 -159.668)" fill="#f0f0ef"/>
        <path id="Path_14533" data-name="Path 14533" d="M605.481,517.875c9.9-11.035,21.26-19.017,36.358-20.187,9.265-.718,10.858,1.661,6.773,9.877-4.445,8.94-10.8,15.637-21.312,16.929-8.105,1-15.112-1.86-21.819-6.619" transform="translate(-197.093 -161.965)" fill="#f0f0ef"/>
        <path id="Path_14534" data-name="Path 14534" d="M206.053,236.831a2.178,2.178,0,0,1,.21.466c.011.055-.136.142-.211.215a2.021,2.021,0,0,1-.208-.444c-.013-.059.129-.151.208-.237" transform="translate(-67.005 -77.092)" fill="#fefefd"/>
        <path id="Path_14535" data-name="Path 14535" d="M250.233,66.352c5.25,0,10.5-.011,15.749.013.947,0,2.192-.284,2.329,1.2s-1.084,1.831-2.169,2.05a13.594,13.594,0,0,1-2.672.094q-13.236.007-26.472,0c-.335,0-.67.007-1,0-1.78-.05-4.234-.034-4.141-2.166.086-1.972,2.548-1.128,3.973-1.158,4.8-.1,9.605-.037,14.408-.036" transform="translate(-75.47 -21.56)" fill="#fefefd"/>
        <path id="Path_14536" data-name="Path 14536" d="M348.134,271.5a5.847,5.847,0,0,1-5.754,5.719c-2.95-.023-5.032-2.432-5.016-5.8.016-3.448,2.241-5.7,5.542-5.619,3.154.081,5.237,2.354,5.229,5.7" transform="translate(-109.817 -86.521)" fill="#fefefd"/>
        <path id="Path_14537" data-name="Path 14537" d="M386.184,209.813s12.22-.476,15.553,11.109" transform="translate(-125.708 -68.296)" fill="none" stroke="#2a180b" stroke-linecap="round" stroke-miterlimit="10" stroke-width="2"/>
        <path id="Path_14538" data-name="Path 14538" d="M438.284,205.749a2.693,2.693,0,1,1-2.693-2.693,2.693,2.693,0,0,1,2.693,2.693" transform="translate(-140.914 -66.098)" fill="#2a180b"/>
        <path id="Path_14539" data-name="Path 14539" d="M488.43,201.757a2.693,2.693,0,1,1-2.693-2.693,2.693,2.693,0,0,1,2.693,2.693" transform="translate(-157.238 -64.798)" fill="#2a180b"/>
        <path id="Path_14540" data-name="Path 14540" d="M429.86,193.927a12.2,12.2,0,0,1,6.07-2.142" transform="translate(-139.926 -62.429)" fill="none" stroke="#2a180b" stroke-linecap="round" stroke-miterlimit="10" stroke-width="2.5"/>
        <path id="Path_14541" data-name="Path 14541" d="M480.473,191.188a12.192,12.192,0,0,1,6.429-.319" transform="translate(-156.401 -62.031)" fill="none" stroke="#2a180b" stroke-linecap="round" stroke-miterlimit="10" stroke-width="2.5"/>
        <path id="Path_14542" data-name="Path 14542" d="M465.3,215.108s11.967,13.45,7.84,22.468" transform="translate(-151.462 -70.021)" fill="none" stroke="#2a180b" stroke-linecap="round" stroke-miterlimit="10" stroke-width="2.5"/>
        <path id="Path_14543" data-name="Path 14543" d="M464.2,260.018s5.7,4.079,11.4,1.429" transform="translate(-151.103 -84.64)" fill="none" stroke="#2a180b" stroke-linecap="round" stroke-miterlimit="10" stroke-width="2.5"/>
        <path id="Path_14544" data-name="Path 14544" d="M617.4,51.46l-38.423,6.657a.817.817,0,0,1-.944-.665L569.4,7.613a.817.817,0,0,1,.665-.944L608.487.012a.817.817,0,0,1,.944.665l8.634,49.838a.816.816,0,0,1-.665.944" transform="translate(-185.343 0)" fill="#2d2c29"/>
        <path id="Path_14545" data-name="Path 14545" d="M619.122,50.927,590.71,55.849a.592.592,0,0,1-.684-.482l-8-46.194a.592.592,0,0,1,.482-.685l28.412-4.922a.592.592,0,0,1,.684.482l8,46.195a.593.593,0,0,1-.482.684" transform="translate(-189.454 -1.158)" fill="#fff"/>
        <path id="Path_14546" data-name="Path 14546" d="M610.075,17.567l-16.75,2.9a.568.568,0,0,1-.656-.463l-.153-.885a.568.568,0,0,1,.463-.656l16.749-2.9a.568.568,0,0,1,.656.463l.154.886a.568.568,0,0,1-.463.656" transform="translate(-192.87 -5.063)" fill="#2d2c29"/>
        <path id="Path_14547" data-name="Path 14547" d="M611.279,24.517l-16.75,2.9a.567.567,0,0,1-.656-.463l-.153-.885a.568.568,0,0,1,.463-.656l16.749-2.9a.567.567,0,0,1,.656.462l.154.886a.568.568,0,0,1-.463.656" transform="translate(-193.262 -7.326)" fill="#2d2c29"/>
        <path id="Path_14548" data-name="Path 14548" d="M11.054,57.641.328,49.6a.82.82,0,0,1-.164-1.148L36.244.328A.82.82,0,0,1,37.392.164L48.117,8.205a.819.819,0,0,1,.164,1.147L12.2,57.477a.82.82,0,0,1-1.148.164" transform="matrix(0.999, 0.035, -0.035, 0.999, 440.656, 63.254)" fill="#2d2c29"/>
        <path id="Path_14549" data-name="Path 14549" d="M7.656,50.964.328,45.47a.82.82,0,0,1-.164-1.148L33.148.328A.82.82,0,0,1,34.3.164l7.328,5.494a.819.819,0,0,1,.164,1.147L8.8,50.8a.82.82,0,0,1-1.148.164" transform="matrix(0.999, 0.035, -0.035, 0.999, 443.785, 66.703)" fill="#fff"/>
        <rect id="Rectangle_18379" data-name="Rectangle 18379" width="47.024" height="2.368" transform="matrix(0.629, -0.777, 0.777, 0.629, 448.139, 110.511)" fill="#2d2c29"/>
        <line id="Line_224" data-name="Line 224" x1="15.056" y1="24.174" transform="translate(347.397 9.86)" fill="none" stroke="#2d2c29" stroke-linecap="round" stroke-miterlimit="10" stroke-width="3"/>
        <line id="Line_225" data-name="Line 225" x1="26.321" y1="10.874" transform="translate(329.327 45.069)" fill="none" stroke="#2d2c29" stroke-linecap="round" stroke-miterlimit="10" stroke-width="3"/>
        <line id="Line_226" data-name="Line 226" y1="1.708" x2="32.354" transform="translate(9.841 202.399)" fill="none" stroke="#2d2c29" stroke-linecap="round" stroke-miterlimit="10" stroke-width="3"/>
        <line id="Line_227" data-name="Line 227" y1="9.807" x2="24.833" transform="translate(38.118 216.996)" fill="none" stroke="#2d2c29" stroke-linecap="round" stroke-miterlimit="10" stroke-width="3"/>
        <path id="Path_14550" data-name="Path 14550" d="M787.784,342.612s7,3.27,7.238,7.9-5.886,11.936-7.939,11.282-9.829-1.143-9.727-3.689S772.5,345.15,783.4,342.748C783.4,342.748,786.144,341.707,787.784,342.612Z" transform="translate(-252.702 -111.405)" fill="none" stroke="#2d2c29" stroke-linecap="round" stroke-miterlimit="10" stroke-width="1.5"/>
        <path id="Path_14551" data-name="Path 14551" d="M837.005,349.65s7,3.27,7.238,7.9-5.886,11.936-7.939,11.282-9.829-1.143-9.727-3.689-4.858-12.957,6.041-15.359C832.618,349.786,835.365,348.745,837.005,349.65Z" transform="translate(-268.725 -113.696)" fill="none" stroke="#2d2c29" stroke-linecap="round" stroke-miterlimit="10" stroke-width="1.5"/>
        <path id="Path_14552" data-name="Path 14552" d="M792.186,352.208s4.1,6.762-3.981,8.231" transform="translate(-256.572 -114.649)" fill="none" stroke="#2d2c29" stroke-linecap="round" stroke-miterlimit="10" stroke-width="1.5"/>
        <path id="Path_14553" data-name="Path 14553" d="M842,361.723s2.361,3.9-2.293,4.742" transform="translate(-273.335 -117.746)" fill="none" stroke="#2d2c29" stroke-linecap="round" stroke-miterlimit="10" stroke-width="1.5"/>
        <path id="Path_14554" data-name="Path 14554" d="M822.1,328.333s4.715-8.44-2.19-6.25-25.38,14.276-25.38,14.276" transform="translate(-258.631 -104.725)" fill="none" stroke="#2d2c29" stroke-linecap="round" stroke-miterlimit="10" stroke-width="1.5"/>
        <path id="Path_14555" data-name="Path 14555" d="M865.839,344.437s4.491-9.05-2.19-6.25c-6.625,2.777-16.294,9.769-16.294,9.769" transform="translate(-275.826 -109.91)" fill="none" stroke="#2d2c29" stroke-linecap="round" stroke-miterlimit="10" stroke-width="1.5"/>
        <line id="Line_228" data-name="Line 228" x2="14.476" y2="1.767" transform="translate(542.566 238.868)" fill="none" stroke="#2d2c29" stroke-linecap="round" stroke-miterlimit="10" stroke-width="1.5"/>
        <path id="Path_14556" data-name="Path 14556" d="M174.283,61.7l-7.736-4.466a1.764,1.764,0,0,0-2.645,1.528v8.933a1.764,1.764,0,0,0,2.645,1.528l7.736-4.466a1.764,1.764,0,0,0,0-3.055" transform="translate(-53.352 -18.552)" fill="#fefefd"/>
        <path id="Path_14557" data-name="Path 14557" d="M6.76,190.734,0,151.715a3.822,3.822,0,0,0,.037-.391,6.431,6.431,0,0,1,2.957-5.678,15.9,15.9,0,0,1,2.459-1.113l32.953-5.709a14.237,14.237,0,0,1,1.856.132,5.345,5.345,0,0,1,4.241,4.694c1.963,11.265,3.907,22.535,5.9,33.794a2.457,2.457,0,0,1-2.2,3.138c-11.626,1.97-23.241,4-34.86,6.017-.206.036-.413.063-.615.112a2.364,2.364,0,0,0-1.619,3.255A2.414,2.414,0,0,0,14,191.289l34.912-6.047a8.162,8.162,0,0,1,.9-.126,2.133,2.133,0,0,1,2.22,2.152,2.169,2.169,0,0,1-2.015,2.156q-5.323.93-10.647,1.847-12.329,2.136-24.657,4.27a6.693,6.693,0,0,1-7.322-3.356c-.251-.461-.424-.966-.633-1.451m1.456-42.252-1.514.262a2.451,2.451,0,0,0-2.264,3.185q2.655,15.33,5.312,30.659c.034.2.069.4.086.5l4.188-1.083L8.217,148.482m14,14.885q.33,1.9.66,3.809a3.132,3.132,0,0,0,5.267,1.809c1.773-1.623,3.557-3.236,5.306-4.886a3.072,3.072,0,0,0-.894-5.189c-2.218-.975-4.457-1.9-6.694-2.833a2.964,2.964,0,0,0-3.2.436,3.035,3.035,0,0,0-1.1,3.045q.326,1.906.659,3.809" transform="translate(0 -45.19)"/>
        <path id="Path_14558" data-name="Path 14558" d="M403.316,432.488s12.141,21.425,38.564,12.141c0,0,18.569-5,22.377-29.757" transform="translate(-131.285 -135.047)" fill="none" stroke="#fff" stroke-linecap="round" stroke-miterlimit="10" stroke-width="5"/>
        <path id="Path_14559" data-name="Path 14559" d="M790.545,444.376s-70.524-3.59-81.237,71.763" transform="translate(-230.89 -144.642)" fill="none" stroke="#fff" stroke-linecap="round" stroke-miterlimit="10" stroke-width="5"/>
      </g>
    </g>
  </g>
</svg>
