<?xml version="1.0" encoding="utf-8"?>
<!-- Generator: Adobe Illustrator 25.4.1, SVG Export Plug-In . SVG Version: 6.00 Build 0)  -->
<svg version="1.1" id="Layer_1" xmlns="http://www.w3.org/2000/svg" xmlns:xlink="http://www.w3.org/1999/xlink" x="0px" y="0px"
	 width="512px" height="200px" viewBox="0 0 512 200" style="enable-background:new 0 0 512 200;" xml:space="preserve">
<style type="text/css">
	.st0{fill:#A93CF7;}
</style>
<g>
	<g>
		<path d="M129.4,87.7c4,0,7.2,3.2,7.2,7.2v4.8c0,15.9-4.1,28-12.3,36.2c-8.2,8.2-19.2,12.3-33,12.3c-8.9,0-16.8-1.8-23.8-5.4
			c-7-3.6-12.4-9-16.4-16.3c-4-7.3-5.9-16.3-5.9-26.9V32.5h22.7v67.2c0,9,2,15.7,5.9,20.2c4,4.5,9.6,6.7,17,6.7
			c7.5,0,13.2-2.2,17.1-6.7c4-4.5,5.9-11.2,5.9-20.2v-4.8c0-4,3.2-7.2,7.2-7.2H129.4z"/>
		<path d="M212.4,61.4c5.4,3.6,9.2,8.4,11.6,14.4V27h22.7v120.1H224v-18.8c-2.4,6.1-6.3,10.9-11.6,14.5c-5.4,3.6-11.8,5.4-19.4,5.4
			c-7.6,0-14.4-1.8-20.5-5.5c-6.1-3.7-10.8-9-14.2-16c-3.4-7-5.1-15.2-5.1-24.6s1.7-17.6,5.1-24.6c3.4-7,8.1-12.3,14.2-16
			c6.1-3.7,12.9-5.5,20.5-5.5C200.5,56.1,207,57.8,212.4,61.4z M182.9,83c-4.3,4.7-6.5,11-6.5,19.2s2.2,14.5,6.5,19.1
			c4.3,4.6,10.1,6.9,17.2,6.9c6.9,0,12.6-2.4,17.1-7.1c4.5-4.7,6.7-11,6.7-18.9c0-8-2.2-14.4-6.7-19.1c-4.5-4.7-10.2-7.1-17.1-7.1
			C193,76,187.2,78.4,182.9,83z"/>
		<path d="M272,22.4c2.6-2.3,6-3.5,10.2-3.5c4.2,0,7.6,1.2,10.2,3.5c2.6,2.3,3.9,5.3,3.9,9c0,3.6-1.3,6.5-3.9,8.8
			c-2.6,2.3-6,3.5-10.2,3.5c-4.2,0-7.6-1.2-10.2-3.5c-2.6-2.3-3.9-5.3-3.9-8.8C268.1,27.7,269.4,24.7,272,22.4z M293.6,57.2v89.9
			h-22.9V57.2H293.6z"/>
		<path d="M348,44.5c-2.7,2.4-4.1,6.6-4.1,12.5v0.2h18.2v19.3h-18.2v70.6h-22.9V76.5h-11.5V57.2h11.5v-2.1c0-10.7,3.1-19,9.2-24.8
			c6.1-5.8,15.2-8.7,27.2-8.7c2.1,0,3.6,0.1,4.7,0.2v19.8C355.4,41.2,350.7,42.1,348,44.5z"/>
		<path d="M394.4,57.2l24.5,61l22.7-61h25.2l-55,132.8h-25.3l20.3-45.5l-37.8-87.3H394.4z"/>
	</g>
	<path d="M129,83.6c1.1-0.4,2.3-0.7,3.3-1.4c1.7-1.1,2.7-2.8,2.9-4.9c0.1-1,0-2,0-3.1c-6.2,0-12.4,0-18.7,0
		c-0.1,2.5-0.1,4.9,1.7,6.9c1.1,1.3,2.5,2,4.1,2.4c0.1,0,0.3,0.1,0.4,0.1C124.8,83.6,126.9,83.6,129,83.6z"/>
	<path class="st0" d="M118.1,70.7c-1.7,0-2.4-0.7-2.4-2.4c0-0.7-0.1-1.5-0.2-2.2c-0.4-2.2-1.6-4-3.2-5.7c-5-5.5-6.2-13.7-2.9-20.3
		c4.1-8.4,13.4-12.2,22.2-9.4c12.8,4.1,16.9,20.3,7.5,30c-2.1,2.1-3,4.6-3.1,7.6c0,1.6-0.8,2.4-2.4,2.4c-2.6,0-5.2,0-7.7,0
		C123.3,70.7,120.7,70.7,118.1,70.7z M123.8,39.9c-0.1,1.2,0.8,2.1,2.1,2.1c2.9,0.2,4.9,1.6,5.8,4.4c0.4,1.3,1.5,1.8,2.7,1.4
		c1.1-0.4,1.6-1.5,1.2-2.7c-1.4-4.3-5.1-7.1-9.4-7.2C124.8,38,123.9,38.8,123.8,39.9z"/>
	<path class="st0" d="M93.7,41.6c0.5-1.1,1.4-1.4,2.5-1.4c2.3,0.1,4.6,0,7,0c1.4,0,2.3,1.3,1.8,2.5c-0.3,0.7-0.9,1.2-1.7,1.2
		c-2.6,0-5.2,0-7.8,0c-0.9,0-1.4-0.6-1.8-1.4C93.7,42.3,93.7,41.9,93.7,41.6z"/>
	<path class="st0" d="M127.7,15.7c0,1.2,0,2.4,0,3.6c0,1.2-0.8,2-1.9,2c-1.1,0-1.9-0.8-1.9-2c0-2.4,0-4.9,0-7.3c0-1.2,0.8-2,1.9-2
		c1.1,0,1.9,0.8,1.9,2C127.7,13.3,127.7,14.5,127.7,15.7z"/>
	<path class="st0" d="M152.2,44c-1.2,0-2.4,0-3.6,0c-1.2,0-2.1-0.8-2.1-1.9c0-1.1,0.8-1.9,2.1-1.9c2.4,0,4.8,0,7.3,0
		c1.2,0,2.1,0.8,2.1,1.9c0,1.1-0.8,1.9-2.1,1.9C154.7,44,153.4,44,152.2,44z"/>
	<path class="st0" d="M111.8,25.9c-0.1,1-0.4,1.6-1.1,1.9c-0.7,0.3-1.4,0.2-2-0.3c-0.7-0.7-1.4-1.4-2.1-2.1
		c-1.1-1.1-2.2-2.2-3.3-3.3c-0.6-0.6-0.8-1.3-0.5-2c0.3-0.7,0.8-1.2,1.5-1.2c0.5,0,1.2,0.2,1.5,0.5c1.8,1.7,3.6,3.5,5.4,5.4
		C111.5,25.2,111.7,25.7,111.8,25.9z"/>
	<path class="st0" d="M149,21.1c-0.1,0.2-0.3,0.7-0.6,1.1c-1.7,1.8-3.4,3.5-5.2,5.2c-0.8,0.8-1.9,0.8-2.7,0.1
		c-0.8-0.8-0.8-1.9,0.1-2.7c1.7-1.7,3.4-3.5,5.2-5.2c0.6-0.6,1.3-0.8,2.1-0.4C148.6,19.4,149,20.1,149,21.1z"/>
</g>
</svg>
